<svg version="1.1" width="600" height="400" style="overflow: hidden;"
  viewBox="0 0 600 400" xmlns="http://www.w3.org/2000/svg">
  <rect x="0" y="0" width="100%" height="100%" fill="DimGray"/>
  <defs>
    <marker
      id="arrowhead"
      viewBox="0 0 10 10"
      refX="5"
      refY="5"
      markerWidth="6"
      markerHeight="6"
      orient="auto-start-reverse">
      <path d="M 0 0 L 10 5 L 0 10 z"  fill="Orange" stroke="Orange"/>
    </marker>
  </defs>
  <g id="two-0" transform="matrix(1 0 0 1 0 0)" opacity="1">
    <path transform="matrix(1 0 0 1 150 300)" d="M -10 -10 L 10 -10 L 10 10 L -10 10 Z "
      fill="blue" stroke="none" stroke-width="0" stroke-opacity="1" fill-opacity="1"
      visibility="visible" stroke-linecap="butt" stroke-linejoin="miter" stroke-miterlimit="4"
      id="two-1"></path>
    <path transform="matrix(1 0 0 1 380 53)"
      d="M 10 0 C 10 5.522847 5.522847 10 0 10 C -5.522848 10 -10 5.522847 -10 0 C -10.000001 -5.522848 -5.522848 -10 -0.000001 -10 C 5.522847 -10.000001 10 -5.522848 10 0 Z "
      fill="blue" stroke="red" stroke-width="2" stroke-opacity="1" fill-opacity="1"
      visibility="visible" stroke-linecap="butt" stroke-linejoin="miter" stroke-miterlimit="4"
      id="two-2"></path>
    <path transform="matrix(1 0 0 1 0 0)" d="M 150 300 L 250 300 L 350 300 L 450 300 "
      fill="none" stroke="Gray" stroke-width="4" stroke-opacity="1" fill-opacity="1"
      visibility="visible" stroke-linecap="butt" stroke-linejoin="miter" stroke-miterlimit="4"
      id="two-3"></path>
   <path transform="matrix(1 0 0 1 0 0)"
      d="M 210.870135 273.586482 L 302.60564 233.779484 L 364.807458 155.479204 L 380 53 "
      fill="none" stroke="#466294" stroke-width="4" stroke-opacity="1" fill-opacity="1"
      visibility="visible" stroke-linecap="butt" stroke-linejoin="miter" stroke-miterlimit="4"
      id="two-4"></path>
    <path transform="matrix(1 0 0 1 0 0)"
      d="M 150 300 L 241.283589 259.167337 L 317.704376 194.670335 L 357.956948 103.129467 "
      fill="none" stroke="DodgerBlue" stroke-width="4" stroke-opacity="1" fill-opacity="1"
      visibility="visible" stroke-linecap="butt" stroke-linejoin="miter" stroke-miterlimit="4"
      id="two-4"></path>
    <path transform="matrix(1 0 0 1 150 300)"
      d="M 5 0 C 5 2.761423 2.761423 5 0 5 C -2.761424 5 -5 2.761423 -5 0 C -5.000001 -2.761424 -2.761424 -5 -0.000001 -5 C 2.761423 -5.000001 5 -2.761424 5 0 Z "
      fill="Black" stroke="none" stroke-width="0" stroke-opacity="1" fill-opacity="1"
      visibility="visible" stroke-linecap="butt" stroke-linejoin="miter" stroke-miterlimit="4"
      id="two-89"></path>
    <path transform="matrix(1 0 0 1 210.870132 273.586486)"
      d="M 5 0 C 5 2.761423 2.761423 5 0 5 C -2.761424 5 -5 2.761423 -5 0 C -5.000001 -2.761424 -2.761424 -5 -0.000001 -5 C 2.761423 -5.000001 5 -2.761424 5 0 Z "
      fill="DarkCyan" stroke="none" stroke-width="0" stroke-opacity="1" fill-opacity="1"
      visibility="visible" stroke-linecap="butt" stroke-linejoin="miter" stroke-miterlimit="4"
      id="two-39"></path>
    <path transform="matrix(1 0 0 1 150 300)"
      d="M 5 0 C 5 2.761423 2.761423 5 0 5 C -2.761424 5 -5 2.761423 -5 0 C -5.000001 -2.761424 -2.761424 -5 -0.000001 -5 C 2.761423 -5.000001 5 -2.761424 5 0 Z "
      fill="cyan" stroke="none" stroke-width="0" stroke-opacity="1" fill-opacity="1"
      visibility="visible" stroke-linecap="butt" stroke-linejoin="miter" stroke-miterlimit="4"
      id="two-90"></path>
    <path transform="matrix(1 0 0 1 250 300)"
      d="M 5 0 C 5 2.761423 2.761423 5 0 5 C -2.761424 5 -5 2.761423 -5 0 C -5.000001 -2.761424 -2.761424 -5 -0.000001 -5 C 2.761423 -5.000001 5 -2.761424 5 0 Z "
      fill="Black" stroke="none" stroke-width="0" stroke-opacity="1" fill-opacity="1"
      visibility="visible" stroke-linecap="butt" stroke-linejoin="miter" stroke-miterlimit="4"
      id="two-92"></path>
    <path transform="matrix(1 0 0 1 302.605651 233.779479)"
      d="M 5 0 C 5 2.761423 2.761423 5 0 5 C -2.761424 5 -5 2.761423 -5 0 C -5.000001 -2.761424 -2.761424 -5 -0.000001 -5 C 2.761423 -5.000001 5 -2.761424 5 0 Z "
      fill="DarkCyan" stroke="none" stroke-width="0" stroke-opacity="1" fill-opacity="1"
      visibility="visible" stroke-linecap="butt" stroke-linejoin="miter" stroke-miterlimit="4"
      id="two-42"></path>
    <path transform="matrix(1 0 0 1 241.283584 259.167327)"
      d="M 5 0 C 5 2.761423 2.761423 5 0 5 C -2.761424 5 -5 2.761423 -5 0 C -5.000001 -2.761424 -2.761424 -5 -0.000001 -5 C 2.761423 -5.000001 5 -2.761424 5 0 Z "
      fill="cyan" stroke="none" stroke-width="0" stroke-opacity="1" fill-opacity="1"
      visibility="visible" stroke-linecap="butt" stroke-linejoin="miter" stroke-miterlimit="4"
      id="two-93"></path>
    <path transform="matrix(1 0 0 1 350 300)"
      d="M 5 0 C 5 2.761423 2.761423 5 0 5 C -2.761424 5 -5 2.761423 -5 0 C -5.000001 -2.761424 -2.761424 -5 -0.000001 -5 C 2.761423 -5.000001 5 -2.761424 5 0 Z "
      fill="Black" stroke="none" stroke-width="0" stroke-opacity="1" fill-opacity="1"
      visibility="visible" stroke-linecap="butt" stroke-linejoin="miter" stroke-miterlimit="4"
      id="two-95"></path>
    <path transform="matrix(1 0 0 1 364.807464 155.479202)"
      d="M 5 0 C 5 2.761423 2.761423 5 0 5 C -2.761424 5 -5 2.761423 -5 0 C -5.000001 -2.761424 -2.761424 -5 -0.000001 -5 C 2.761423 -5.000001 5 -2.761424 5 0 Z "
      fill="DarkCyan" stroke="none" stroke-width="0" stroke-opacity="1" fill-opacity="1"
      visibility="visible" stroke-linecap="butt" stroke-linejoin="miter" stroke-miterlimit="4"
      id="two-45"></path>
    <path transform="matrix(1 0 0 1 317.704376 194.670333)"
      d="M 5 0 C 5 2.761423 2.761423 5 0 5 C -2.761424 5 -5 2.761423 -5 0 C -5.000001 -2.761424 -2.761424 -5 -0.000001 -5 C 2.761423 -5.000001 5 -2.761424 5 0 Z "
      fill="cyan" stroke="none" stroke-width="0" stroke-opacity="1" fill-opacity="1"
      visibility="visible" stroke-linecap="butt" stroke-linejoin="miter" stroke-miterlimit="4"
      id="two-96"></path>
    <path transform="matrix(1 0 0 1 364.807464 155.479202)" d="M 0 0 L -46.8 39.5" fill="none"
      stroke="Gray" stroke-width="2" stroke-opacity="1" fill-opacity="1" visibility="visible"
      stroke-linecap="butt" stroke-linejoin="miter" stroke-miterlimit="4" stroke-dasharray="4"
      stroke-dashoffset="0" id="two-97"></path>
    <path transform="matrix(1 0 0 1 450 300)"
      d="M 5 0 C 5 2.761423 2.761423 5 0 5 C -2.761424 5 -5 2.761423 -5 0 C -5.000001 -2.761424 -2.761424 -5 -0.000001 -5 C 2.761423 -5.000001 5 -2.761424 5 0 Z "
      fill="Black" stroke="none" stroke-width="0" stroke-opacity="1" fill-opacity="1"
      visibility="visible" stroke-linecap="butt" stroke-linejoin="miter" stroke-miterlimit="4"
      id="two-98"></path>
    <path transform="matrix(1 0 0 1 380 53)"
      d="M 5 0 C 5 2.761423 2.761423 5 0 5 C -2.761424 5 -5 2.761423 -5 0 C -5.000001 -2.761424 -2.761424 -5 -0.000001 -5 C 2.761423 -5.000001 5 -2.761424 5 0 Z "
      fill="DarkCyan" stroke="none" stroke-width="0" stroke-opacity="1" fill-opacity="1"
      visibility="visible" stroke-linecap="butt" stroke-linejoin="miter" stroke-miterlimit="4"
      id="two-48"></path>
    <path transform="matrix(1 0 0 1 357.956939 103.12947)"
      d="M 5 0 C 5 2.761423 2.761423 5 0 5 C -2.761424 5 -5 2.761423 -5 0 C -5.000001 -2.761424 -2.761424 -5 -0.000001 -5 C 2.761423 -5.000001 5 -2.761424 5 0 Z "
      fill="cyan" stroke="none" stroke-width="0" stroke-opacity="1" fill-opacity="1"
      visibility="visible" stroke-linecap="butt" stroke-linejoin="miter" stroke-miterlimit="4"
      id="two-99"></path>
    <path transform="matrix(1 0 0 1 450 300)" d="M -71
     -243 L -88 -207" fill="none"
      stroke="Orange" stroke-width="2" stroke-opacity="1" fill-opacity="1"
      visibility="visible" stroke-linecap="butt" stroke-linejoin="miter" stroke-miterlimit="4"
      stroke-dasharray="4" stroke-dashoffset="0" id="two-100"
      marker-end="url(#arrowhead)"></path>
  </g>
</svg>