<svg version="1.1" width="600" height="400" style="overflow: hidden;"
  viewBox="0 0 600 400" xmlns="http://www.w3.org/2000/svg">
  <rect x="0" y="0" width="100%" height="100%" fill="DimGray"/>
    <defs />
    <g id="two-0" transform="matrix(1 0 0 1 0 0)" opacity="1">
        <path transform="matrix(1 0 0 1 150 300)" d="M -10 -10 L 10 -10 L 10 10 L -10 10 Z "
            fill="blue" stroke="none" stroke-width="0" stroke-opacity="1" fill-opacity="1"
            visibility="visible" stroke-linecap="butt" stroke-linejoin="miter" stroke-miterlimit="4"
            id="two-1" />
        <path transform="matrix(1 0 0 1 380 53)"
            d="M 10 0 C 10 5.522847 5.522847 10 0 10 C -5.522848 10 -10 5.522847 -10 0 C -10.000001 -5.522848 -5.522848 -10 -0.000001 -10 C 5.522847 -10.000001 10 -5.522848 10 0 Z "
            fill="blue" stroke="red" stroke-width="2" stroke-opacity="1" fill-opacity="1"
            visibility="visible" stroke-linecap="butt" stroke-linejoin="miter" stroke-miterlimit="4"
            id="two-2" />
        <path transform="matrix(1 0 0 1 0 0)"
            d="M 178.327584 274.051485 L 252.066901 206.505107 L 319.231012 132.417442 L 380 53 "
            fill="none" stroke="Gray" stroke-width="4" stroke-opacity="1" fill-opacity="1"
            visibility="hidden" stroke-linecap="butt" stroke-linejoin="miter" stroke-miterlimit="4"
            id="two-3" />
        <path transform="matrix(1 0 0 1 0 0)"
            d="M 150 300 L 223.739316 232.453622 L 292.78788 160.119012 L 355.924698 82.570689 "
            fill="none" stroke="DodgerBlue" stroke-width="4" stroke-opacity="1" fill-opacity="1"
            visibility="visible" stroke-linecap="butt" stroke-linejoin="miter" stroke-miterlimit="4"
            id="two-4" />
        <path transform="matrix(1 0 0 1 178.32759 274.051483)"
            d="M 5 0 C 5 2.761423 2.761423 5 0 5 C -2.761424 5 -5 2.761423 -5 0 C -5.000001 -2.761424 -2.761424 -5 -0.000001 -5 C 2.761423 -5.000001 5 -2.761424 5 0 Z "
            fill="Black" stroke="none" stroke-width="0" stroke-opacity="1" fill-opacity="1"
            visibility="hidden" stroke-linecap="butt" stroke-linejoin="miter" stroke-miterlimit="4"
            id="two-38" />
        <path transform="matrix(1 0 0 1 150 300)"
            d="M 5 0 C 5 2.761423 2.761423 5 0 5 C -2.761424 5 -5 2.761423 -5 0 C -5.000001 -2.761424 -2.761424 -5 -0.000001 -5 C 2.761423 -5.000001 5 -2.761424 5 0 Z "
            fill="cyan" stroke="none" stroke-width="0" stroke-opacity="1" fill-opacity="1"
            visibility="visible" stroke-linecap="butt" stroke-linejoin="miter" stroke-miterlimit="4"
            id="two-39" />
        <path transform="matrix(1 0 0 1 150 300)" d="M 28.327584 -25.948515 L 0 0 " fill="none"
            stroke="Gray" stroke-width="2" stroke-opacity="1" fill-opacity="1" visibility="hidden"
            stroke-linecap="butt" stroke-linejoin="miter" stroke-miterlimit="4" stroke-dasharray="4"
            stroke-dashoffset="0" id="two-40" />
        <path transform="matrix(1 0 0 1 252.066894 206.505111)"
            d="M 5 0 C 5 2.761423 2.761423 5 0 5 C -2.761424 5 -5 2.761423 -5 0 C -5.000001 -2.761424 -2.761424 -5 -0.000001 -5 C 2.761423 -5.000001 5 -2.761424 5 0 Z "
            fill="Black" stroke="none" stroke-width="0" stroke-opacity="1" fill-opacity="1"
            visibility="hidden" stroke-linecap="butt" stroke-linejoin="miter" stroke-miterlimit="4"
            id="two-41" />
        <path transform="matrix(1 0 0 1 223.739318 232.453628)"
            d="M 5 0 C 5 2.761423 2.761423 5 0 5 C -2.761424 5 -5 2.761423 -5 0 C -5.000001 -2.761424 -2.761424 -5 -0.000001 -5 C 2.761423 -5.000001 5 -2.761424 5 0 Z "
            fill="cyan" stroke="none" stroke-width="0" stroke-opacity="1" fill-opacity="1"
            visibility="visible" stroke-linecap="butt" stroke-linejoin="miter" stroke-miterlimit="4"
            id="two-42" />
        <path transform="matrix(1 0 0 1 250 300)" d="M 2.066901 -93.494893 L -26.260684 -67.546378 "
            fill="none" stroke="Gray" stroke-width="2" stroke-opacity="1" fill-opacity="1"
            visibility="hidden" stroke-linecap="butt" stroke-linejoin="miter" stroke-miterlimit="4"
            stroke-dasharray="4" stroke-dashoffset="0" id="two-43" />
        <path transform="matrix(1 0 0 1 319.231018 132.417449)"
            d="M 5 0 C 5 2.761423 2.761423 5 0 5 C -2.761424 5 -5 2.761423 -5 0 C -5.000001 -2.761424 -2.761424 -5 -0.000001 -5 C 2.761423 -5.000001 5 -2.761424 5 0 Z "
            fill="Black" stroke="none" stroke-width="0" stroke-opacity="1" fill-opacity="1"
            visibility="hidden" stroke-linecap="butt" stroke-linejoin="miter" stroke-miterlimit="4"
            id="two-44" />
        <path transform="matrix(1 0 0 1 292.787872 160.119018)"
            d="M 5 0 C 5 2.761423 2.761423 5 0 5 C -2.761424 5 -5 2.761423 -5 0 C -5.000001 -2.761424 -2.761424 -5 -0.000001 -5 C 2.761423 -5.000001 5 -2.761424 5 0 Z "
            fill="cyan" stroke="none" stroke-width="0" stroke-opacity="1" fill-opacity="1"
            visibility="visible" stroke-linecap="butt" stroke-linejoin="miter" stroke-miterlimit="4"
            id="two-45" />
        <path transform="matrix(1 0 0 1 350 300)"
            d="M -30.768988 -167.582558 L -57.21212 -139.880988 " fill="none" stroke="Gray"
            stroke-width="2" stroke-opacity="1" fill-opacity="1" visibility="hidden"
            stroke-linecap="butt" stroke-linejoin="miter" stroke-miterlimit="4" stroke-dasharray="4"
            stroke-dashoffset="0" id="two-46" />
        <path transform="matrix(1 0 0 1 380 53)"
            d="M 5 0 C 5 2.761423 2.761423 5 0 5 C -2.761424 5 -5 2.761423 -5 0 C -5.000001 -2.761424 -2.761424 -5 -0.000001 -5 C 2.761423 -5.000001 5 -2.761424 5 0 Z "
            fill="Black" stroke="none" stroke-width="0" stroke-opacity="1" fill-opacity="1"
            visibility="hidden" stroke-linecap="butt" stroke-linejoin="miter" stroke-miterlimit="4"
            id="two-47" />
        <path transform="matrix(1 0 0 1 355.924713 82.570686)"
            d="M 5 0 C 5 2.761423 2.761423 5 0 5 C -2.761424 5 -5 2.761423 -5 0 C -5.000001 -2.761424 -2.761424 -5 -0.000001 -5 C 2.761423 -5.000001 5 -2.761424 5 0 Z "
            fill="cyan" stroke="none" stroke-width="0" stroke-opacity="1" fill-opacity="1"
            visibility="visible" stroke-linecap="butt" stroke-linejoin="miter" stroke-miterlimit="4"
            id="two-48" />
        <path transform="matrix(1 0 0 1 450 300)" d="M -70 -247 L -94.075302 -217.429311 "
            fill="none" stroke="DimGray" stroke-width="2" stroke-opacity="1" fill-opacity="1"
            visibility="hidden" stroke-linecap="butt" stroke-linejoin="miter" stroke-miterlimit="4"
            stroke-dasharray="4" stroke-dashoffset="0" id="two-49" />
    </g>
</svg>