<svg version="1.1" width="600" height="400" style="overflow: hidden;"
  viewBox="0 0 600 400" xmlns="http://www.w3.org/2000/svg">
  <rect x="0" y="0" width="100%" height="100%" fill="DimGray"/>
    <defs />
    <g id="two-0" transform="matrix(1 0 0 1 0 0)" opacity="1">
        <path transform="matrix(1 0 0 1 150 300)" d="M -10 -10 L 10 -10 L 10 10 L -10 10 Z "
            fill="blue" stroke="none" stroke-width="0" stroke-opacity="1" fill-opacity="1"
            visibility="visible" stroke-linecap="butt" stroke-linejoin="miter" stroke-miterlimit="4"
            id="two-1" />
        <path transform="matrix(1 0 0 1 380 53)"
            d="M 10 0 C 10 5.522847 5.522847 10 0 10 C -5.522848 10 -10 5.522847 -10 0 C -10.000001 -5.522848 -5.522848 -10 -0.000001 -10 C 5.522847 -10.000001 10 -5.522848 10 0 Z "
            fill="blue" stroke="red" stroke-width="2" stroke-opacity="1" fill-opacity="1"
            visibility="visible" stroke-linecap="butt" stroke-linejoin="miter" stroke-miterlimit="4"
            id="two-2" />
        <path transform="matrix(1 0 0 1 0 0)"
            d="M 177.339684 273.697946 L 249.404688 204.368045 L 316.863182 130.548322 L 380 53 "
            fill="none" stroke="Gray" stroke-width="4" stroke-opacity="1" fill-opacity="1"
            visibility="hidden" stroke-linecap="butt" stroke-linejoin="miter" stroke-miterlimit="4"
            id="two-3" />
        <path transform="matrix(1 0 0 1 0 0)"
            d="M 150 300 L 222.065004 230.670099 L 290.818814 158.055268 L 355.53486 81.819887 "
            fill="none" stroke="DodgerBlue" stroke-width="4" stroke-opacity="1" fill-opacity="1"
            visibility="visible" stroke-linecap="butt" stroke-linejoin="miter" stroke-miterlimit="4"
            id="two-4" />
        <path transform="matrix(1 0 0 1 177.339691 273.697937)"
            d="M 5 0 C 5 2.761423 2.761423 5 0 5 C -2.761424 5 -5 2.761423 -5 0 C -5.000001 -2.761424 -2.761424 -5 -0.000001 -5 C 2.761423 -5.000001 5 -2.761424 5 0 Z "
            fill="Black" stroke="none" stroke-width="0" stroke-opacity="1" fill-opacity="1"
            visibility="hidden" stroke-linecap="butt" stroke-linejoin="miter" stroke-miterlimit="4"
            id="two-38" />
        <path transform="matrix(1 0 0 1 150 300)"
            d="M 5 0 C 5 2.761423 2.761423 5 0 5 C -2.761424 5 -5 2.761423 -5 0 C -5.000001 -2.761424 -2.761424 -5 -0.000001 -5 C 2.761423 -5.000001 5 -2.761424 5 0 Z "
            fill="cyan" stroke="none" stroke-width="0" stroke-opacity="1" fill-opacity="1"
            visibility="visible" stroke-linecap="butt" stroke-linejoin="miter" stroke-miterlimit="4"
            id="two-39" />
        <path transform="matrix(1 0 0 1 150 300)" d="M 27.339684 -26.302054 L 0 0 " fill="none"
            stroke="Gray" stroke-width="2" stroke-opacity="1" fill-opacity="1" visibility="hidden"
            stroke-linecap="butt" stroke-linejoin="miter" stroke-miterlimit="4" stroke-dasharray="4"
            stroke-dashoffset="0" id="two-40" />
        <path transform="matrix(1 0 0 1 249.404693 204.368041)"
            d="M 5 0 C 5 2.761423 2.761423 5 0 5 C -2.761424 5 -5 2.761423 -5 0 C -5.000001 -2.761424 -2.761424 -5 -0.000001 -5 C 2.761423 -5.000001 5 -2.761424 5 0 Z "
            fill="Black" stroke="none" stroke-width="0" stroke-opacity="1" fill-opacity="1"
            visibility="hidden" stroke-linecap="butt" stroke-linejoin="miter" stroke-miterlimit="4"
            id="two-41" />
        <path transform="matrix(1 0 0 1 222.065002 230.670104)"
            d="M 5 0 C 5 2.761423 2.761423 5 0 5 C -2.761424 5 -5 2.761423 -5 0 C -5.000001 -2.761424 -2.761424 -5 -0.000001 -5 C 2.761423 -5.000001 5 -2.761424 5 0 Z "
            fill="cyan" stroke="none" stroke-width="0" stroke-opacity="1" fill-opacity="1"
            visibility="visible" stroke-linecap="butt" stroke-linejoin="miter" stroke-miterlimit="4"
            id="two-42" />
        <path transform="matrix(1 0 0 1 250 300)"
            d="M -0.595312 -95.631955 L -27.934996 -69.329901 " fill="none" stroke="Gray"
            stroke-width="2" stroke-opacity="1" fill-opacity="1" visibility="hidden"
            stroke-linecap="butt" stroke-linejoin="miter" stroke-miterlimit="4" stroke-dasharray="4"
            stroke-dashoffset="0" id="two-43" />
        <path transform="matrix(1 0 0 1 316.863189 130.548324)"
            d="M 5 0 C 5 2.761423 2.761423 5 0 5 C -2.761424 5 -5 2.761423 -5 0 C -5.000001 -2.761424 -2.761424 -5 -0.000001 -5 C 2.761423 -5.000001 5 -2.761424 5 0 Z "
            fill="Black" stroke="none" stroke-width="0" stroke-opacity="1" fill-opacity="1"
            visibility="hidden" stroke-linecap="butt" stroke-linejoin="miter" stroke-miterlimit="4"
            id="two-44" />
        <path transform="matrix(1 0 0 1 290.818817 158.055267)"
            d="M 5 0 C 5 2.761423 2.761423 5 0 5 C -2.761424 5 -5 2.761423 -5 0 C -5.000001 -2.761424 -2.761424 -5 -0.000001 -5 C 2.761423 -5.000001 5 -2.761424 5 0 Z "
            fill="cyan" stroke="none" stroke-width="0" stroke-opacity="1" fill-opacity="1"
            visibility="visible" stroke-linecap="butt" stroke-linejoin="miter" stroke-miterlimit="4"
            id="two-45" />
        <path transform="matrix(1 0 0 1 350 300)"
            d="M -33.136818 -169.451678 L -59.181186 -141.944732 " fill="none" stroke="Gray"
            stroke-width="2" stroke-opacity="1" fill-opacity="1" visibility="hidden"
            stroke-linecap="butt" stroke-linejoin="miter" stroke-miterlimit="4" stroke-dasharray="4"
            stroke-dashoffset="0" id="two-46" />
        <path transform="matrix(1 0 0 1 380 53)"
            d="M 5 0 C 5 2.761423 2.761423 5 0 5 C -2.761424 5 -5 2.761423 -5 0 C -5.000001 -2.761424 -2.761424 -5 -0.000001 -5 C 2.761423 -5.000001 5 -2.761424 5 0 Z "
            fill="Black" stroke="none" stroke-width="0" stroke-opacity="1" fill-opacity="1"
            visibility="hidden" stroke-linecap="butt" stroke-linejoin="miter" stroke-miterlimit="4"
            id="two-47" />
        <path transform="matrix(1 0 0 1 355.534851 81.819885)"
            d="M 5 0 C 5 2.761423 2.761423 5 0 5 C -2.761424 5 -5 2.761423 -5 0 C -5.000001 -2.761424 -2.761424 -5 -0.000001 -5 C 2.761423 -5.000001 5 -2.761424 5 0 Z "
            fill="cyan" stroke="none" stroke-width="0" stroke-opacity="1" fill-opacity="1"
            visibility="visible" stroke-linecap="butt" stroke-linejoin="miter" stroke-miterlimit="4"
            id="two-48" />
        <path transform="matrix(1 0 0 1 450 300)" d="M -70 -247 L -94.46514 -218.180113 "
            fill="none" stroke="DimGray" stroke-width="2" stroke-opacity="1" fill-opacity="1"
            visibility="hidden" stroke-linecap="butt" stroke-linejoin="miter" stroke-miterlimit="4"
            stroke-dasharray="4" stroke-dashoffset="0" id="two-49" />
    </g>
</svg>